<?xml version="1.0" encoding="UTF-8" standalone="no"?>
<!-- Created with Inkscape (http://www.inkscape.org/) -->

<svg
   xmlns:dc="http://purl.org/dc/elements/1.1/"
   xmlns:cc="http://creativecommons.org/ns#"
   xmlns:rdf="http://www.w3.org/1999/02/22-rdf-syntax-ns#"
   xmlns:svg="http://www.w3.org/2000/svg"
   xmlns="http://www.w3.org/2000/svg"
   xmlns:sodipodi="http://sodipodi.sourceforge.net/DTD/sodipodi-0.dtd"
   xmlns:inkscape="http://www.inkscape.org/namespaces/inkscape"
   width="793.70081"
   height="1122.5197"
   viewBox="0 0 210 297"
   version="1.1"
   id="svg8"
   inkscape:version="0.92.4 (5da689c313, 2019-01-14)"
   sodipodi:docname="Ship.svg">
  <defs
     id="defs2">
    <filter
       inkscape:collect="always"
       style="color-interpolation-filters:sRGB"
       id="filter947"
       x="-0.050269578"
       width="1.1005392"
       y="-0.045926504"
       height="1.091853">
      <feGaussianBlur
         inkscape:collect="always"
         stdDeviation="0.46764165"
         id="feGaussianBlur949" />
    </filter>
    <filter
       inkscape:collect="always"
       style="color-interpolation-filters:sRGB"
       id="filter1077"
       x="-0.038932453"
       width="1.0778649"
       y="-0.033478358"
       height="1.0669567">
      <feGaussianBlur
         inkscape:collect="always"
         stdDeviation="0.38810103"
         id="feGaussianBlur1079" />
    </filter>
    <filter
       inkscape:collect="always"
       style="color-interpolation-filters:sRGB"
       id="filter1089"
       x="-0.033651279"
       width="1.0673026"
       y="-0.038701184"
       height="1.0774024">
      <feGaussianBlur
         inkscape:collect="always"
         stdDeviation="0.33997977"
         id="feGaussianBlur1091" />
    </filter>
    <filter
       inkscape:collect="always"
       style="color-interpolation-filters:sRGB"
       id="filter1149"
       x="-0.037793711"
       width="1.0755874"
       y="-0.034368836"
       height="1.0687377">
      <feGaussianBlur
         inkscape:collect="always"
         stdDeviation="0.34877036"
         id="feGaussianBlur1151" />
    </filter>
    <filter
       inkscape:collect="always"
       style="color-interpolation-filters:sRGB"
       id="filter1161"
       x="-0.037828739"
       width="1.0756575"
       y="-0.03433992"
       height="1.0686798">
      <feGaussianBlur
         inkscape:collect="always"
         stdDeviation="0.34966251"
         id="feGaussianBlur1163" />
    </filter>
    <filter
       inkscape:collect="always"
       style="color-interpolation-filters:sRGB"
       id="filter1183"
       x="-0.021240597"
       width="1.0424812"
       y="-0.11798157"
       height="1.2359631">
      <feGaussianBlur
         inkscape:collect="always"
         stdDeviation="0.16907595"
         id="feGaussianBlur1185" />
    </filter>
  </defs>
  <sodipodi:namedview
     id="base"
     pagecolor="#ffffff"
     bordercolor="#666666"
     borderopacity="1.0"
     inkscape:pageopacity="0.0"
     inkscape:pageshadow="2"
     inkscape:zoom="17.10069"
     inkscape:cx="314.99947"
     inkscape:cy="630.79314"
     inkscape:document-units="mm"
     inkscape:current-layer="layer1"
     showgrid="true"
     units="px"
     inkscape:pagecheckerboard="false"
     objecttolerance="11"
     guidetolerance="10"
     inkscape:window-width="3200"
     inkscape:window-height="1701"
     inkscape:window-x="-11"
     inkscape:window-y="-11"
     inkscape:window-maximized="1">
    <inkscape:grid
       type="xygrid"
       id="grid815"
       dotted="false"
       originx="74.083334"
       originy="158.75" />
  </sodipodi:namedview>
  <metadata
     id="metadata5">
    <rdf:RDF>
      <cc:Work
         rdf:about="">
        <dc:format>image/svg+xml</dc:format>
        <dc:type
           rdf:resource="http://purl.org/dc/dcmitype/StillImage" />
        <dc:title></dc:title>
      </cc:Work>
    </rdf:RDF>
  </metadata>
  <g
     inkscape:label="Layer 1"
     inkscape:groupmode="layer"
     id="layer1">
    <g
       id="g852">
      <path
         inkscape:connector-curvature="0"
         id="path825"
         d="m 75.406249,136.92707 h 7.937502"
         style="fill:none;stroke:#000000;stroke-width:0.13229167;stroke-linecap:round;stroke-linejoin:round;stroke-miterlimit:4;stroke-dasharray:none;stroke-opacity:1;paint-order:markers fill stroke" />
      <path
         sodipodi:nodetypes="cc"
         inkscape:connector-curvature="0"
         id="path835"
         d="m 75.406251,136.92707 c -0.12761,-2.33622 -1.130903,-5.57387 0,-6.61458"
         style="fill:none;stroke:#000000;stroke-width:0.13229167;stroke-linecap:round;stroke-linejoin:round;stroke-miterlimit:4;stroke-dasharray:none;stroke-opacity:1" />
      <path
         sodipodi:nodetypes="cc"
         inkscape:connector-curvature="0"
         id="path841"
         d="m 83.343751,122.37499 c -6.35,4.49792 -1.322917,10.58333 -2.645835,14.55208"
         style="fill:none;stroke:#000000;stroke-width:0.13229167;stroke-linecap:round;stroke-linejoin:miter;stroke-miterlimit:4;stroke-dasharray:none;stroke-opacity:1" />
      <path
         sodipodi:nodetypes="cccc"
         inkscape:connector-curvature="0"
         id="path843"
         d="m 80.697917,132.95832 c -5.374699,0.59378 -3.26903,-1.5208 -4.497918,-2.64583 h -0.79375 v 0"
         style="fill:none;stroke:#000000;stroke-width:0.13229167;stroke-linecap:butt;stroke-linejoin:miter;stroke-miterlimit:3.9000001;stroke-dasharray:none;stroke-opacity:1" />
      <path
         inkscape:connector-curvature="0"
         id="path845"
         d="m 80.697916,136.92707 0.529166,1.05834 h 2.116667"
         style="fill:none;stroke:#000000;stroke-width:0.13229167;stroke-linecap:butt;stroke-linejoin:miter;stroke-opacity:1;stroke-miterlimit:4;stroke-dasharray:none" />
    </g>
    <path
       style="fill:none;stroke:#000000;stroke-width:0.13229167;stroke-linecap:round;stroke-linejoin:round;stroke-miterlimit:4;stroke-dasharray:none;stroke-opacity:1;paint-order:markers fill stroke"
       d="M 91.281251,136.92707 H 83.343749"
       id="path825-4"
       inkscape:connector-curvature="0" />
    <path
       style="fill:none;stroke:#000000;stroke-width:0.13229167;stroke-linecap:round;stroke-linejoin:round;stroke-miterlimit:4;stroke-dasharray:none;stroke-opacity:1"
       d="m 91.281249,136.92707 c 0.12761,-2.33622 1.130903,-5.57387 0,-6.61458"
       id="path835-6"
       inkscape:connector-curvature="0"
       sodipodi:nodetypes="cc" />
    <path
       style="fill:none;stroke:#000000;stroke-width:0.13229167;stroke-linecap:round;stroke-linejoin:miter;stroke-miterlimit:4;stroke-dasharray:none;stroke-opacity:1;fill-opacity:1;"
       d="m 83.343749,122.37499 c 6.35,4.49792 1.322917,10.58333 2.645835,14.55208"
       id="path841-2"
       inkscape:connector-curvature="0"
       sodipodi:nodetypes="cc" />
    <path
       style="fill:none;stroke:#000000;stroke-width:0.13229167;stroke-linecap:butt;stroke-linejoin:miter;stroke-miterlimit:3.9000001;stroke-dasharray:none;stroke-opacity:1;"
       d="m 85.989583,132.95832 c 5.374699,0.59378 3.26903,-1.5208 4.497918,-2.64583 h 0.79375 v 0"
       id="path843-8"
       inkscape:connector-curvature="0"
       sodipodi:nodetypes="cccc" />
    <path
       style="fill:none;stroke:#000000;stroke-width:0.13229167;stroke-linecap:butt;stroke-linejoin:miter;stroke-miterlimit:4;stroke-dasharray:none;stroke-opacity:1"
       d="m 85.989584,136.92707 -0.529166,1.05834 h -2.116667"
       id="path845-0"
       inkscape:connector-curvature="0" />
    <circle
       style="fill:none;fill-opacity:1;stroke:#000000;stroke-width:0.13229167;stroke-linecap:round;stroke-linejoin:round;stroke-miterlimit:4;stroke-dasharray:none;stroke-opacity:1;paint-order:markers fill stroke"
       id="path889"
       cx="83.349487"
       cy="128.67201"
       r="3.2045922" />
    <path
       style="fill:none;fill-opacity:1;stroke:#000000;stroke-width:0.0206748;stroke-linecap:round;stroke-linejoin:round;stroke-miterlimit:4;stroke-dasharray:none;stroke-opacity:1;paint-order:markers fill stroke"
       d="m 285.25585,517.20604 c -0.0152,-0.0152 -0.0277,-0.12215 -0.0279,-0.23776 -4.1e-4,-0.28472 -0.14209,-1.78997 -0.27082,-2.87724 -0.13772,-1.16326 -0.32565,-2.52918 -0.69973,-5.086 -0.50683,-3.46413 -0.73036,-5.23889 -0.86714,-6.88471 -0.39207,-4.71756 0.10512,-7.60192 1.58412,-9.18995 l 0.12515,-0.13439 h 1.40475 1.40475 l 0.23392,0.25844 c 0.45926,0.50738 0.76371,1.0492 1.01341,1.80355 0.18911,0.57128 0.28457,1.02245 0.45654,2.15771 0.30686,2.02575 0.51643,2.729 1.05405,3.53699 0.85835,1.29001 2.41182,2.0647 4.83667,2.41193 0.9195,0.13167 1.48622,0.1714 2.81177,0.19711 1.63904,0.0318 3.08913,-0.0332 5.34643,-0.23952 0.52985,-0.0484 0.97349,-0.0779 0.98586,-0.0656 0.0287,0.0287 0.22188,1.14519 0.40569,2.34424 0.77104,5.02979 0.73904,8.48711 -0.10706,11.56756 l -0.12777,0.46518 H 295.051 c -5.37217,0 -9.77999,-0.0124 -9.79515,-0.0276 z"
       id="path891"
       inkscape:connector-curvature="0"
       transform="scale(0.26458333)" />
    <path
       style="fill:#0a0000;fill-opacity:1;stroke:#0a0000;stroke-width:0.00004135;stroke-linecap:round;stroke-linejoin:round;stroke-miterlimit:4;stroke-dasharray:none;stroke-opacity:1;paint-order:markers fill stroke;filter:url(#filter1089)"
       d="m 302.8689,483.61638 c 0.29282,-5.74072 2.20879,-10.70079 5.78916,-14.98697 1.61424,-1.93246 3.83774,-3.9731 6.12493,-5.6212 l 0.21715,-0.15648 0.44444,0.32376 c 2.16517,1.57729 4.33645,3.5853 5.89736,5.45392 3.00326,3.5953 4.78544,7.54012 5.50049,12.1752 0.17795,1.15352 0.34237,3.05559 0.22697,2.6257 -0.47075,-1.75365 -1.08264,-3.07815 -2.01535,-4.36239 -2.04985,-2.82242 -5.10903,-4.61836 -8.60681,-5.05275 -0.56565,-0.0702 -2.28748,-0.0702 -2.85313,0 -4.19656,0.52117 -7.77021,3.02994 -9.64642,6.77196 -0.50264,1.00248 -0.71363,1.61639 -1.07898,3.13937 -0.0109,0.0455 -0.0108,-0.0941 1.9e-4,-0.31012 z"
       id="path1061"
       inkscape:connector-curvature="0"
       transform="scale(0.26458333)" />
    <path
       style="fill:#0a0000;fill-opacity:1;stroke:#0a0000;stroke-width:0.00004135;stroke-linecap:round;stroke-linejoin:round;stroke-miterlimit:4;stroke-dasharray:none;stroke-opacity:1;paint-order:markers fill stroke;filter:url(#filter1077)"
       d="m 305.49502,516.80977 c 0.62926,-2.24645 0.79962,-5.03272 0.50881,-8.3216 -0.18425,-2.08376 -0.53777,-4.3516 -1.33749,-8.58005 -0.78422,-4.14645 -1.031,-5.56341 -1.30351,-7.48427 -0.17262,-1.21675 -0.36934,-2.97583 -0.33647,-3.0087 0.013,-0.013 0.0236,0.009 0.0236,0.0479 0,0.11531 0.36575,1.20115 0.56387,1.67405 1.185,2.8284 3.50632,5.20798 6.30655,6.4648 4.71634,2.11683 10.20314,1.1144 13.84747,-2.52993 1.39294,-1.39294 2.34611,-2.9308 2.99962,-4.83963 0.0973,-0.28428 0.17822,-0.47495 0.17976,-0.42371 0.004,0.13434 -0.14605,1.43382 -0.26865,2.32579 -0.2521,1.83428 -0.50084,3.27832 -1.27598,7.40764 -0.77347,4.12051 -1.01724,5.57309 -1.24109,7.39552 -0.497,4.04632 -0.38453,7.28393 0.34306,9.87572 l 0.118,0.42033 h -9.62314 -9.62314 z"
       id="path1063"
       inkscape:connector-curvature="0"
       transform="scale(0.26458333)" />
    <path
       style="fill:#0a0000;fill-opacity:1;stroke:#0a0000;stroke-width:0.0206748;stroke-linecap:round;stroke-linejoin:round;stroke-miterlimit:4;stroke-dasharray:none;stroke-opacity:1;paint-order:markers fill stroke;filter:url(#filter1161)"
       d="m 325.15674,517.14066 c -0.0137,-0.0512 -0.0252,-0.19939 -0.0255,-0.32926 -3.1e-4,-0.12987 -0.0556,-0.48341 -0.12282,-0.78564 -0.22079,-0.99241 -0.30182,-1.54793 -0.41489,-2.84441 -0.0618,-0.70827 -0.0501,-2.95694 0.02,-3.86619 0.0921,-1.19393 0.22696,-2.49947 0.30966,-2.99785 0.0208,-0.12508 0.0571,-0.36698 0.0807,-0.53754 0.0967,-0.69881 0.46706,-2.87598 0.49401,-2.90445 0.016,-0.0169 0.29805,-0.004 0.62687,0.029 2.627,0.2621 5.61987,0.3392 7.2965,0.18796 3.07307,-0.27721 4.94044,-1.07978 5.9129,-2.54131 0.51871,-0.77957 0.7455,-1.52857 1.03349,-3.41326 0.19678,-1.28782 0.28368,-1.70481 0.47506,-2.27972 0.25177,-0.75634 0.55591,-1.29712 1.01431,-1.80355 l 0.23392,-0.25844 h 1.40475 1.40475 l 0.12515,0.13439 c 0.68449,0.73495 1.16937,1.7846 1.43738,3.11156 0.40185,1.98963 0.36329,4.69788 -0.12304,8.64206 -0.15113,1.22572 -0.19426,1.53591 -0.6784,4.87926 -0.53088,3.66616 -0.79,5.782 -0.88114,7.19483 l -0.0293,0.45484 -9.78467,0.0104 -9.78468,0.0104 z"
       id="path1133"
       inkscape:connector-curvature="0"
       transform="scale(0.26458333)" />
    <path
       style="fill:#0a0000;fill-opacity:1;stroke:#0a0000;stroke-width:0.0206748;stroke-linecap:round;stroke-linejoin:round;stroke-miterlimit:4;stroke-dasharray:none;stroke-opacity:1;paint-order:markers fill stroke;filter:url(#filter1149)"
       d="m 285.24948,516.7891 c -0.10583,-1.53087 -0.35111,-3.5299 -0.9112,-7.42631 -0.85618,-5.95622 -1.02854,-7.6387 -1.02791,-10.03356 3.6e-4,-1.37718 0.035,-1.90863 0.1874,-2.87129 0.22973,-1.4515 0.74833,-2.68953 1.43437,-3.42419 l 0.18341,-0.19641 h 1.39673 1.39674 l 0.22506,0.25844 c 0.79306,0.91067 1.10751,1.76483 1.45402,3.94963 0.26114,1.64655 0.41499,2.27747 0.70551,2.89305 0.66846,1.41643 1.89828,2.30233 3.88686,2.79992 1.03032,0.2578 2.11415,0.38441 3.73327,0.43608 1.71818,0.0548 3.47162,-0.014 5.81849,-0.22839 0.85881,-0.0785 0.7939,-0.0843 0.81653,0.0736 0.0106,0.0739 0.0863,0.52514 0.16835,1.00273 0.69948,4.07398 0.89325,7.11924 0.62591,9.83669 -0.0642,0.65234 -0.23347,1.75148 -0.3064,1.9893 -0.061,0.19896 -0.16403,0.76506 -0.18683,1.02672 -0.0116,0.13259 -0.0316,0.25819 -0.0445,0.27911 -0.0142,0.023 -3.88618,0.038 -9.77571,0.038 h -9.75221 z"
       id="path1135"
       inkscape:connector-curvature="0"
       transform="scale(0.26458333)" />
    <path
       style="fill:#0a0000;fill-opacity:1;stroke:#0a0000;stroke-width:0.0206748;stroke-linecap:round;stroke-linejoin:round;stroke-miterlimit:4;stroke-dasharray:none;stroke-opacity:1;paint-order:markers fill stroke;filter:url(#filter1183)"
       d="m 306.3075,519.53135 -0.85629,-1.71317 0.15358,0.0282 c 0.22354,0.041 18.65287,0.0346 18.81435,-0.007 l 0.13616,-0.0347 -0.85954,1.71969 -0.85955,1.71968 H 315 307.16379 Z"
       id="path1165"
       inkscape:connector-curvature="0"
       transform="scale(0.26458333)" />
    <path
       style="fill:#ffffff;fill-opacity:0;stroke:#0a0000;stroke-width:0.0206748;stroke-linecap:round;stroke-linejoin:round;stroke-miterlimit:4;stroke-dasharray:none;stroke-opacity:1;paint-order:markers fill stroke"
       d="m 313.88356,497.96287 c -2.14492,-0.19311 -4.39386,-1.09832 -6.11974,-2.46323 -0.43216,-0.34177 -1.5439,-1.45024 -1.90001,-1.89442 -0.63022,-0.78608 -1.17445,-1.70877 -1.63579,-2.77333 -0.12812,-0.29565 -0.30827,-0.67563 -0.40033,-0.8444 -0.40221,-0.73737 -0.69208,-2.56725 -0.63915,-4.03486 0.0546,-1.51492 0.23676,-2.32861 0.90241,-4.03158 0.80512,-2.05975 2.34491,-3.98867 4.23109,-5.30032 1.59058,-1.1061 3.61843,-1.84288 5.56828,-2.02313 0.73934,-0.0684 2.36086,-0.0238 2.97041,0.0815 2.56533,0.4435 4.69685,1.52669 6.45587,3.28072 1.23463,1.23113 2.05429,2.48872 2.71354,4.16333 0.38819,0.98608 0.46264,1.21063 0.57157,1.72405 0.3056,1.44028 0.33966,3.00749 0.0965,4.44163 -0.10325,0.60906 -0.34894,1.54982 -0.45356,1.73669 -0.0446,0.0796 -0.31163,0.6099 -0.59349,1.17846 -0.49137,0.9912 -0.57271,1.13679 -0.94712,1.69534 -0.6699,0.99935 -1.89025,2.23611 -2.94707,2.98668 -1.61453,1.14666 -3.6738,1.90306 -5.6597,2.07888 -0.51983,0.046 -1.69177,0.0449 -2.21374,-0.002 z"
       id="path1187"
       inkscape:connector-curvature="0"
       transform="scale(0.26458333)" />
  </g>
</svg>
